<?xml version="1.0" encoding="UTF-8"?><svg id="Calque_2" xmlns="http://www.w3.org/2000/svg" viewBox="0 0 32 32"><g id="Calque_1-2"><path d="M2,2l6,6v16l-6,6V2ZM24,8l6-6v28l-6-6V8Z" fill="#e3b602"/><path d="M8,8L2,2h28l-6,6H8Z" fill="#fedb4e"/><path d="M8,8h16v16H8V8Z" fill="#fc0"/><path d="M30,2H2v28h28V2ZM.6.6c.37-.4.83-.6,1.4-.6h28c.57,0,1.05.2,1.45.6.37.37.55.83.55,1.4v28c0,.57-.18,1.05-.55,1.45-.4.37-.88.55-1.45.55H2c-.57,0-1.03-.18-1.4-.55-.4-.4-.6-.88-.6-1.45V2C0,1.43.2.97.6.6Z" fill="#a78503"/><path d="M2,30l6-6h16l6,6H2Z" fill="#caa202"/></g></svg>