<?xml version="1.0" encoding="UTF-8"?><svg id="Calque_2" xmlns="http://www.w3.org/2000/svg" viewBox="0 0 32 32"><g id="Calque_1-2"><path d="M32,2v28c0,.57-.18,1.05-.55,1.45-.4.37-.88.55-1.45.55H2c-.57,0-1.03-.18-1.4-.55-.4-.4-.6-.88-.6-1.45V2C0,1.43.2.97.6.6c.37-.4.83-.6,1.4-.6h28c.57,0,1.05.2,1.45.6.37.37.55.83.55,1.4ZM30,2H2v28h28V2Z" fill="#6a8921"/><path d="M24,8l6-6v28l-6-6V8ZM2,2l6,6v16l-6,6V2Z" fill="#95c02e"/><path d="M30,2l-6,6H8L2,2h28Z" fill="#b3d85a"/><path d="M8,8h16v16H8V8Z" fill="#9fce31"/><path d="M24,24l6,6H2l6-6h16Z" fill="#85ac28"/></g></svg>