<?xml version="1.0" encoding="UTF-8"?><svg id="Calque_2" xmlns="http://www.w3.org/2000/svg" viewBox="0 0 32 32"><g id="Calque_1-2"><path d="M31.45.6c.37.37.55.83.55,1.4v28c0,.57-.18,1.05-.55,1.45-.4.37-.88.55-1.45.55H2c-.57,0-1.03-.18-1.4-.55-.4-.4-.6-.88-.6-1.45V2C0,1.43.2.97.6.6c.37-.4.83-.6,1.4-.6h28c.57,0,1.05.2,1.45.6ZM30,30V2H2v28h28Z" fill="#583d65"/><path d="M24,8v16H8V8h16Z" fill="#835995"/><path d="M24,24V8l6-6v28l-6-6ZM8,8v16l-6,6V2l6,6Z" fill="#79538a"/><path d="M24,24l6,6H2l6-6h16Z" fill="#624370"/><path d="M30,2l-6,6H8L2,2h28Z" fill="#9b75ac"/></g></svg>