<?xml version="1.0" encoding="UTF-8"?><svg id="Calque_2" xmlns="http://www.w3.org/2000/svg" viewBox="0 0 190 49"><g id="Calque_1-2"><path d="M184,2H6c-2.33,0-3.63,1.02-3.9,3.05l-.1.95v33c0,2.67,1.33,4,4,4h178c2.67,0,4-1.33,4-4V6l-.05-.95c-.3-2.03-1.62-3.05-3.95-3.05ZM0,39.25V6C0,2,2,0,6,0h178c4,0,6,2,6,6v33.25c-.1,3.83-2.1,5.75-6,5.75H6c-3.9,0-5.9-1.92-6-5.75Z" fill="#d5d5d5"/><path d="M6,2h178c2.33,0,3.65,1.02,3.95,3.05l.05.95v33c0,2.67-1.33,4-4,4H6c-2.67,0-4-1.33-4-4V6l.1-.95c.27-2.03,1.57-3.05,3.9-3.05ZM185,5.55l-.05-.05c-.13-.33-.45-.5-.95-.5H6c-.5,0-.82.17-.95.5l-.05.5v33c0,.67.33,1,1,1h178c.67,0,1-.33,1-1V5.55ZM5.05,5.5v.05-.05Z" fill="#fff"/><path d="M184.95,5.5l.05.05v33.45c0,.67-.33,1-1,1H6c-.67,0-1-.33-1-1V6l.05-.45c.13-.37.45-.55.95-.55h178c.5,0,.82.17.95.5ZM5.05,5.55v-.05.05Z" fill="#eee"/><path d="M190,39.25v3.75c0,4-2,6-6,6H6c-4,0-6-2-6-6v-3.75c.1,3.83,2.1,5.75,6,5.75h178c3.9,0,5.9-1.92,6-5.75Z" fill="#aaa"/></g></svg>