<?xml version="1.0" encoding="UTF-8"?><svg id="Calque_2" xmlns="http://www.w3.org/2000/svg" viewBox="0 0 80 80"><g id="Calque_1-2"><g id="Layer0_13_FILL"><path d="M80,40c0-11.03-3.92-20.47-11.75-28.3C60.45,3.9,51.03,0,40,0S19.45,3.9,11.65,11.7C3.88,19.53,0,28.97,0,40s3.88,20.45,11.65,28.25c7.8,7.83,17.25,11.75,28.35,11.75s20.45-3.92,28.25-11.75c7.83-7.8,11.75-17.22,11.75-28.25Z" fill="rgba(56,56,56,.5)"/></g><g id="Layer0_77_FILL"><path d="M42.65,24.1v.05c-1.07-1.1-2.33-1.4-3.8-.9-.1,0-.2.02-.3.05-1.6.7-2.45,1.95-2.55,3.75v5l-12,.05c-.53,0-1,.2-1.4.6-.4.4-.6.87-.6,1.4v12.9c0,.6.22,1.07.65,1.4.4.37.85.55,1.35.55h12v5.1c.17,1.9,1.05,3.13,2.65,3.7h-.05c.47.2.93.3,1.4.3h.05c.87.07,1.7-.25,2.5-.95l.05-.05c.07-.07.12-.13.15-.2l14.1-13.7h-.05c.8-.73,1.2-1.6,1.2-2.6,0-.9-.33-1.73-1-2.5-.07-.07-.13-.12-.2-.15l-14.15-13.8Z" fill="#fff"/></g></g></svg>