<?xml version="1.0" encoding="UTF-8"?><svg id="Calque_2" xmlns="http://www.w3.org/2000/svg" xmlns:xlink="http://www.w3.org/1999/xlink" viewBox="0 0 80 80"><defs><linearGradient id="Dégradé_sans_nom_82" x1="40" y1="-120.11" x2="40" y2="-40.11" gradientTransform="translate(0 -40.11) scale(1 -1)" gradientUnits="userSpaceOnUse"><stop offset="0" stop-color="#383838"/><stop offset="1" stop-color="#585858"/></linearGradient></defs><g id="Calque_1-2"><g id="Layer0_28_FILL"><path d="M80,40c0-11.03-3.92-20.47-11.75-28.3C60.45,3.9,51.03,0,40,0S19.45,3.9,11.65,11.7C3.88,19.53,0,28.97,0,40s3.88,20.45,11.65,28.25c7.8,7.83,17.25,11.75,28.35,11.75s20.45-3.92,28.25-11.75c7.83-7.8,11.75-17.22,11.75-28.25M64.2,15.75c6.73,6.73,10.1,14.82,10.1,24.25s-3.37,17.57-10.1,24.2c-6.63,6.73-14.7,10.1-24.2,10.1-9.5,0-17.58-3.37-24.25-10.1-6.7-6.63-10.05-14.7-10.05-24.2,0-9.43,3.35-17.52,10.05-24.25,6.67-6.7,14.75-10.05,24.25-10.05,9.5,0,17.57,3.35,24.2,10.05Z" fill="url(#Dégradé_sans_nom_82)"/><path d="M74.3,40c0-9.43-3.37-17.52-10.1-24.25-6.63-6.7-14.7-10.05-24.2-10.05-9.5,0-17.58,3.35-24.25,10.05-6.7,6.73-10.05,14.82-10.05,24.25,0,9.5,3.35,17.57,10.05,24.2,6.67,6.73,14.75,10.1,24.25,10.1,9.5,0,17.57-3.37,24.2-10.1,6.73-6.63,10.1-14.7,10.1-24.2Z" fill="#383838"/></g><g id="Layer0_60_FILL"><path d="M42.65,24.1v.05c-1.07-1.1-2.33-1.4-3.8-.9-.1,0-.2.02-.3.05-1.6.7-2.45,1.95-2.55,3.75v5l-12,.05c-.53,0-1,.2-1.4.6-.4.4-.6.87-.6,1.4v12.9c0,.6.22,1.07.65,1.4.4.37.85.55,1.35.55h12v5.1c.17,1.9,1.05,3.13,2.65,3.7h-.05c.47.2.93.3,1.4.3h.05c.87.07,1.7-.25,2.5-.95l.05-.05c.07-.07.12-.13.15-.2l14.1-13.7h-.05c.8-.73,1.2-1.6,1.2-2.6,0-.9-.33-1.73-1-2.5-.07-.07-.13-.12-.2-.15l-14.15-13.8Z" fill="#fff"/></g></g></svg>